<?xml version="1.0" encoding="UTF-8" standalone="no"?>
<!-- Created with Inkscape (http://www.inkscape.org/) -->

<svg
   xmlns:dc="http://purl.org/dc/elements/1.1/"
   xmlns:cc="http://creativecommons.org/ns#"
   xmlns:rdf="http://www.w3.org/1999/02/22-rdf-syntax-ns#"
   xmlns:svg="http://www.w3.org/2000/svg"
   xmlns="http://www.w3.org/2000/svg"
   xmlns:sodipodi="http://sodipodi.sourceforge.net/DTD/sodipodi-0.dtd"
   xmlns:inkscape="http://www.inkscape.org/namespaces/inkscape"
   width="210mm"
   height="297mm"
   viewBox="0 0 210 297"
   version="1.1"
   id="svg9916"
   inkscape:version="0.92.1 r15371"
   sodipodi:docname="logo.svg">
  <defs
     id="defs9910">
    <filter
       inkscape:collect="always"
       style="color-interpolation-filters:sRGB"
       id="filter9138"
       x="-0.056835979"
       width="1.113672"
       y="-0.045267627"
       height="1.0905353">
      <feGaussianBlur
         inkscape:collect="always"
         stdDeviation="0.24464646"
         id="feGaussianBlur9140" />
    </filter>
    <filter
       inkscape:collect="always"
       style="color-interpolation-filters:sRGB"
       id="filter9892"
       x="-0.050813287"
       width="1.1016266"
       y="-0.049993381"
       height="1.0999868">
      <feGaussianBlur
         inkscape:collect="always"
         stdDeviation="3.9386279"
         id="feGaussianBlur9894" />
    </filter>
  </defs>
  <sodipodi:namedview
     id="base"
     pagecolor="#ffffff"
     bordercolor="#666666"
     borderopacity="1.0"
     inkscape:pageopacity="0.0"
     inkscape:pageshadow="2"
     inkscape:zoom="0.35"
     inkscape:cx="-75.714286"
     inkscape:cy="560"
     inkscape:document-units="mm"
     inkscape:current-layer="layer1"
     showgrid="false"
     inkscape:window-width="1739"
     inkscape:window-height="1057"
     inkscape:window-x="173"
     inkscape:window-y="-8"
     inkscape:window-maximized="1" />
  <metadata
     id="metadata9913">
    <rdf:RDF>
      <cc:Work
         rdf:about="">
        <dc:format>image/svg+xml</dc:format>
        <dc:type
           rdf:resource="http://purl.org/dc/dcmitype/StillImage" />
        <dc:title></dc:title>
      </cc:Work>
    </rdf:RDF>
  </metadata>
  <g
     inkscape:label="Layer 1"
     inkscape:groupmode="layer"
     id="layer1">
    <g
       transform="matrix(0.64124718,0,0,0.64124718,-79.677562,87.681032)"
       featurekey="container1"
       id="g9706"
       style="display:inline;fill:#ebeff2;fill-opacity:1">
      <defs
         id="defs9668" />
      <g
         id="g9704"
         style="fill:#ebeff2;fill-opacity:1">
        <path
           id="path9670"
           d="m 17.914,148.907 c -0.664,-0.914 -1.313,-1.837 -1.944,-2.774 0.626,0.933 1.279,1.856 1.944,2.774 z"
           inkscape:connector-curvature="0"
           style="fill:#ebeff2;fill-opacity:1" />
        <path
           id="path9672"
           d="m 22.657,154.94 c 1.844,2.153 3.788,4.249 5.861,6.251 6.914,6.805 15.159,12.525 24.004,16.851 3.259,1.526 6.265,3.107 9.787,4.468 0.88,0.338 1.779,0.7 2.724,1.026 0.953,0.302 1.941,0.604 2.974,0.903 1.027,0.321 2.122,0.549 3.267,0.786 1.146,0.23 2.336,0.493 3.614,0.624 -6.3,-1.328 -12.498,-3.333 -18.434,-5.99 -5.93,-2.671 -11.597,-5.979 -16.873,-9.842 -10.548,-7.727 -19.57,-17.648 -26.16,-28.989 -0.272,-0.339 -0.685,-0.985 -1.18,-1.808 -0.244,-0.413 -0.512,-0.868 -0.796,-1.348 -0.256,-0.496 -0.527,-1.018 -0.803,-1.551 -0.534,-1.076 -1.149,-2.168 -1.62,-3.226 -0.486,-1.05 -0.943,-2.011 -1.326,-2.748 2.048,5.101 4.412,9.563 7.059,13.806 1.215,1.936 2.495,3.828 3.869,5.697 -0.192,-0.259 -0.392,-0.511 -0.583,-0.771 1.446,1.986 2.974,3.94 4.6,5.841 0.005,0.005 0.01,0.013 0.016,0.02 z"
           inkscape:connector-curvature="0"
           style="fill:#ebeff2;fill-opacity:1" />
        <path
           id="path9674"
           d="m 18.039,149.078 c -0.042,-0.057 -0.084,-0.114 -0.125,-0.17 0.042,0.056 0.084,0.113 0.125,0.17 z"
           inkscape:connector-curvature="0"
           style="fill:#ebeff2;fill-opacity:1" />
        <path
           id="path9676"
           d="m 1.335,106.042 c -0.159,-1.277 -0.32,-2.567 -0.483,-3.875 0.256,2.365 0.553,5.008 1.096,7.654 -0.109,-0.624 -0.217,-1.251 -0.327,-1.879 -0.118,-0.627 -0.218,-1.26 -0.286,-1.9 z"
           inkscape:connector-curvature="0"
           style="fill:#ebeff2;fill-opacity:1" />
        <path
           id="path9678"
           d="m 85.812,185.575 c 6.652,0.673 13.628,0.472 20.461,-0.609 6.837,-1.077 13.524,-2.987 19.741,-5.449 -11.45,4.503 -23.602,6.506 -35.49,6.171 -1.591,-0.025 -3.159,0 -4.712,-0.113 z"
           inkscape:connector-curvature="0"
           style="fill:#ebeff2;fill-opacity:1" />
        <path
           id="path9680"
           d="m 46.426,171.967 c -0.086,-0.055 -0.173,-0.11 -0.259,-0.165 0.087,0.055 0.172,0.111 0.259,0.165 z"
           inkscape:connector-curvature="0"
           style="fill:#ebeff2;fill-opacity:1" />
        <path
           id="path9682"
           d="m 46.167,171.802 c -0.853,-0.542 -1.688,-1.1 -2.514,-1.667 0.822,0.57 1.664,1.122 2.514,1.667 z"
           inkscape:connector-curvature="0"
           style="fill:#ebeff2;fill-opacity:1" />
        <path
           id="path9684"
           d="m 43.653,170.135 c -0.899,-0.623 -1.797,-1.248 -2.66,-1.897 0.868,0.648 1.759,1.278 2.66,1.897 z"
           inkscape:connector-curvature="0"
           style="fill:#ebeff2;fill-opacity:1" />
        <path
           id="path9686"
           d="m 56.077,177.284 c 5.439,2.533 11.23,4.506 17.123,5.816 -9.688,-2.21 -18.805,-6.109 -26.774,-11.133 3.06,1.947 6.277,3.749 9.651,5.317 z"
           inkscape:connector-curvature="0"
           style="fill:#ebeff2;fill-opacity:1" />
        <path
           id="path9688"
           d="m 177.002,107.094 c 0.098,-1.58 0.296,-3.238 0.346,-4.027 0.594,-5.071 0.77,-9.401 0.745,-13.745 -0.11,-0.783 -0.425,-2.25 -0.55,-3.918 -0.153,-1.672 -0.378,-3.309 -0.568,-4.924 -0.289,-1.601 -0.538,-3.186 -0.854,-4.74 2.275,11.617 2.237,23.279 0.144,34.282 0.245,-1.036 0.491,-2.019 0.737,-2.928 z"
           inkscape:connector-curvature="0"
           style="fill:#ebeff2;fill-opacity:1" />
        <path
           id="path9690"
           d="m 0.887,83.482 c 0.848,-6.9 2.653,-13.626 4.37,-18.107 l -0.695,3.28 c 0.429,-0.961 1.122,-3.194 2.067,-5.557 0.225,-0.594 0.454,-1.2 0.682,-1.802 0.255,-0.591 0.508,-1.179 0.753,-1.747 0.5,-1.131 0.92,-2.203 1.363,-3.025 C 9.124,57.295 8.832,58.126 8.48,58.96 8.135,59.797 7.748,60.647 7.379,61.502 8.134,59.8 8.134,59.8 8.893,58.093 7.581,61.359 6.148,65.463 4.954,69.8 3.821,74.152 2.925,78.726 2.443,82.832 c -0.14,1.024 -0.189,2.024 -0.28,2.978 -0.067,0.954 -0.183,1.864 -0.192,2.724 -0.042,1.719 -0.1,3.224 -0.071,4.428 0.105,2.409 0.25,3.61 0.459,2.939 0.411,-1.333 0.403,-8.188 1.837,-16.767 0.767,-4.276 1.868,-8.966 3.362,-13.561 1.483,-4.599 3.427,-9.058 5.44,-12.992 -0.197,0.429 -0.394,0.859 -0.592,1.292 -0.181,0.442 -0.362,0.885 -0.545,1.331 -0.369,0.889 -0.741,1.787 -1.116,2.691 -0.339,0.92 -0.68,1.846 -1.024,2.78 C 9.548,61.141 9.374,61.608 9.2,62.077 9.047,62.553 8.892,63.031 8.739,63.511 7.419,67.318 6.432,71.327 5.572,75.368 L 5.013,78.42 C 4.808,79.434 4.721,80.466 4.569,81.487 4.251,83.528 4.135,85.584 3.958,87.616 3.759,91.69 3.719,95.714 4.088,99.562 4.073,98.648 4.058,97.836 4.071,97.05 c 0.038,-0.785 0.075,-1.545 0.115,-2.355 0.048,-0.809 0.039,-1.667 0.115,-2.65 0.07,-0.983 0.134,-2.091 0.19,-3.402 0.391,-6.608 1.572,-13.15 3.408,-19.481 1.75,-6.358 3.814,-11.957 6.889,-17.03 0.269,-0.513 0.536,-1.021 0.801,-1.526 0.542,-1.024 0.993,-2.034 1.566,-3.064 0.653,-1.13 1.278,-1.976 1.784,-2.751 0.521,-0.767 0.963,-1.441 1.469,-2.095 0.969,-1.336 1.977,-2.729 3.682,-5.082 0.075,-0.009 -0.022,0.185 -0.2,0.473 0.506,-0.725 1.194,-1.622 1.959,-2.49 0.755,-0.875 1.488,-1.803 2.109,-2.569 0.146,-0.007 0.288,-0.011 0.623,-0.251 8.65,-9.197 19.295,-16.692 31.291,-21.417 0.892,-0.347 1.781,-0.694 2.667,-1.039 0.902,-0.3 1.802,-0.6 2.7,-0.899 l 1.343,-0.448 1.36,-0.38 c 0.906,-0.252 1.809,-0.502 2.71,-0.753 1.55,-0.373 3.12,-0.751 4.721,-1.091 0.806,-0.141 1.619,-0.283 2.437,-0.426 0.819,-0.141 1.642,-0.3 2.484,-0.378 1.674,-0.201 3.134,-0.625 3.921,-0.729 4.369,-0.249 8.73,-0.199 13.849,0.216 0.397,0.007 1.015,0.043 1.732,0.082 0.717,0.041 1.537,0.061 2.332,0.134 0.932,0.21 1.927,0.418 2.971,0.621 6.369,0.988 12.527,2.754 18.386,5.103 l -0.007,-0.028 c 0.73,0.291 1.479,0.589 2.244,0.894 0.748,0.346 1.513,0.699 2.29,1.058 1.571,0.684 3.11,1.559 4.7,2.383 0.798,0.407 1.554,0.904 2.338,1.354 0.77,0.474 1.576,0.894 2.32,1.412 1.508,1.002 3.037,1.961 4.446,3.032 2.402,1.723 4.619,3.507 6.6,5.198 0.046,0.042 0.094,0.081 0.14,0.122 0.018,0.016 0.028,0.025 0.042,0.038 l 1.457,1.322 1.394,1.391 1.395,1.392 c 0.462,0.467 0.89,0.967 1.337,1.449 -0.216,-0.35 -0.208,-0.491 -0.2,-0.63 -0.689,-0.66 -1.504,-1.441 -2.309,-2.21 1.343,1.222 2.515,2.327 3.477,3.229 0.371,0.474 0.776,0.94 1.16,1.449 0.385,0.508 0.78,1.031 1.186,1.566 0.41,0.53 0.831,1.074 1.261,1.629 0.409,0.572 0.828,1.156 1.255,1.752 2.226,2.838 4.191,5.874 6.057,8.97 0.864,1.588 1.817,3.131 2.586,4.774 l 1.213,2.436 1.092,2.497 c 0.314,0.533 0.192,0.022 0.231,-0.068 1.225,2.962 2.21,6.042 3.102,9.146 1.692,5.556 2.839,11.323 3.408,17.211 0.225,1.378 0.321,2.772 0.52,4.153 -0.033,0.787 -0.075,1.773 -0.123,2.924 -0.001,1.103 0.057,2.206 0.01,3.311 -0.042,1.104 -0.085,2.212 -0.128,3.326 -0.016,0.75 -0.124,1.569 -0.187,2.459 -0.084,0.888 -0.128,1.846 -0.256,2.856 -0.13,1.008 -0.268,2.076 -0.412,3.192 -0.132,1.119 -0.387,2.269 -0.583,3.471 -0.883,4.79 -2.297,10.17 -4.312,15.482 -0.242,0.826 -0.427,1.486 -0.592,1.855 -0.627,1.501 -1.296,2.954 -1.942,4.385 -0.723,1.394 -1.386,2.788 -2.127,4.108 -2.441,4.646 -5.246,8.876 -7.949,12.379 -0.336,0.439 -0.649,0.885 -0.987,1.297 -0.34,0.41 -0.673,0.812 -0.998,1.206 -0.66,0.779 -1.25,1.558 -1.876,2.234 -1.251,1.352 -2.301,2.606 -3.286,3.549 -1.128,1.178 -1.027,1.233 -0.246,0.665 0.388,-0.287 0.957,-0.719 1.608,-1.262 0.631,-0.569 1.362,-1.228 2.122,-1.914 0.776,-0.677 1.519,-1.441 2.235,-2.161 0.708,-0.725 1.416,-1.386 1.962,-1.984 1.101,-1.191 1.824,-1.926 1.67,-1.599 -1.777,3.345 -5.013,7.471 -9.743,12.035 -2.413,2.227 -5.128,4.647 -8.339,6.98 -1.566,1.221 -3.307,2.338 -5.082,3.558 -1.834,1.123 -3.708,2.353 -5.757,3.445 -4.484,2.442 3.365,-1.475 3.577,-1.512 -0.605,0.472 -1.406,1.062 -2.377,1.64 -1.478,0.786 -2.943,1.597 -4.474,2.273 -0.895,0.411 -1.774,0.855 -2.679,1.239 l -2.729,1.122 c 0.483,-0.19 0.958,-0.376 1.444,-0.568 2.952,-1.173 5.711,-2.555 8.202,-3.922 -0.936,0.566 -1.96,1.221 -3.082,1.812 -1.203,0.622 -2.448,1.302 -3.697,1.909 -1.26,0.586 -2.494,1.16 -3.625,1.686 12.968,-4.711 24.885,-12.507 34.319,-22.67 4.723,-5.066 8.935,-10.631 12.369,-16.651 3.455,-6.005 6.239,-12.391 8.288,-18.999 -3.154,9.93 -8.071,19.052 -13.981,26.765 10.744,-14.507 17.15,-32.293 17.999,-50.636 -10e-4,1.011 -0.101,2.018 -0.168,3.025 -0.083,1.007 -0.123,2.018 -0.241,3.022 -0.257,2.005 -0.441,4.021 -0.827,6.009 -0.624,4 -1.636,7.931 -2.782,11.815 2.262,-7.021 3.613,-14.424 4.145,-21.869 0.554,-7.451 0.092,-14.947 -1.057,-22.211 1.974,9.622 2.301,20.524 0.619,31.298 1.182,-6.949 1.482,-14.112 1.028,-21.214 -0.102,-2.713 -0.422,-5.407 -0.685,-7.901 -0.377,-2.476 -0.662,-4.762 -1.027,-6.611 1.445,6.826 2.015,12.648 2.293,18.136 -0.267,-11.977 -2.748,-24.112 -7.62,-35.511 2.659,6.191 4.842,12.851 6.175,19.698 1.34,6.84 1.897,13.838 1.58,20.57 -0.015,-0.788 0.018,-1.575 -0.028,-2.366 -0.036,-0.791 -0.071,-1.586 -0.107,-2.391 0.287,10.85 -1.384,21.604 -4.696,31.717 -1.662,5.056 -3.715,9.969 -6.2,14.644 -2.484,4.674 -5.349,9.131 -8.56,13.316 3.673,-4.29 7.551,-10.354 10.646,-17.015 3.081,-6.675 5.368,-13.894 6.941,-20.199 -2.314,11.322 -6.907,22.494 -13.571,32.471 -6.646,9.985 -15.351,18.764 -25.423,25.502 -10.06,6.759 -21.474,11.437 -33.187,13.748 -5.856,1.161 -11.779,1.764 -17.657,1.809 -5.877,0.032 -11.702,-0.488 -17.361,-1.515 l 3.005,0.571 c 1.002,0.19 2.018,0.295 3.026,0.445 2.016,0.324 4.055,0.446 6.087,0.633 4.073,0.229 8.168,0.306 12.25,-0.005 4.089,-0.217 8.152,-0.827 12.196,-1.572 2.006,-0.456 4.036,-0.829 6.017,-1.414 0.994,-0.278 2,-0.521 2.987,-0.83 l 2.955,-0.958 c -1.492,0.462 -3.062,1.074 -4.739,1.523 -0.692,0.203 -1.396,0.41 -2.101,0.618 4.45,-1.195 8.735,-2.677 12.91,-4.496 1.903,-0.831 3.786,-1.73 5.651,-2.705 -3.472,1.838 -7.05,3.472 -10.714,4.872 -7.006,2.619 -14.295,4.418 -21.66,5.382 -1.11,0.176 -2.122,0.231 -3.029,0.326 -0.908,0.09 -1.714,0.169 -2.428,0.24 -1.429,0.113 -2.484,0.164 -3.222,0.245 -1.477,0.147 -1.687,0.284 -1.099,0.397 0.587,0.113 1.971,0.203 3.673,0.251 1.697,-0.01 3.71,-0.101 5.541,-0.268 18.397,-1.887 35.288,-9.107 48.824,-19.916 13.545,-10.811 23.919,-25.172 29.701,-41.467 0.363,-0.946 0.642,-1.922 0.944,-2.89 0.293,-0.971 0.617,-1.932 0.882,-2.912 0.491,-1.97 1.072,-3.917 1.448,-5.917 l 0.619,-2.985 0.487,-3.012 0.241,-1.507 0.172,-1.517 0.342,-3.034 c 0.698,-8.114 0.422,-16.315 -0.812,-24.363 -0.66,-4.554 -1.82,-9.961 -3.315,-14.777 -0.395,-1.197 -0.781,-2.365 -1.15,-3.484 -0.4,-1.107 -0.825,-2.151 -1.203,-3.133 -0.193,-0.49 -0.379,-0.962 -0.557,-1.415 -0.2,-0.444 -0.39,-0.869 -0.571,-1.271 -0.37,-0.801 -0.7,-1.516 -0.981,-2.124 -3.134,-6.359 -7.072,-12.424 -11.682,-18.065 -4.605,-5.643 -9.896,-10.868 -15.861,-15.418 -0.747,-0.566 -1.494,-1.134 -2.244,-1.703 -0.774,-0.535 -1.55,-1.071 -2.327,-1.608 l -1.166,-0.806 -1.203,-0.756 c -0.804,-0.502 -1.609,-1.004 -2.417,-1.508 -3.295,-1.904 -6.67,-3.739 -10.228,-5.261 -3.521,-1.598 -7.206,-2.895 -10.957,-4.055 -1.895,-0.52 -3.781,-1.1 -5.724,-1.499 C 112.286,2.199 111.326,1.945 110.347,1.77 109.368,1.596 108.387,1.423 107.403,1.249 100.363,0.01 93.04,-0.285 85.724,0.265 78.412,0.83 71.069,2.218 64.028,4.614 l -2.635,0.913 c -0.881,0.297 -1.73,0.682 -2.597,1.019 -0.858,0.359 -1.735,0.673 -2.577,1.069 l -2.532,1.173 c -0.852,0.376 -1.675,0.808 -2.496,1.245 l -2.469,1.297 -2.402,1.412 c -0.8,0.472 -1.606,0.933 -2.372,1.458 l -2.324,1.528 c -0.782,0.497 -1.506,1.078 -2.261,1.612 -0.741,0.554 -1.51,1.07 -2.226,1.654 l -2.157,1.737 c -0.729,0.565 -1.417,1.178 -2.103,1.792 l -2.063,1.83 -1.971,1.919 c -0.656,0.639 -1.319,1.271 -1.93,1.951 C 21.882,33.521 17.462,39.301 13.847,45.417 10.232,51.533 7.344,57.926 5.18,64.379 0.805,77.299 -0.45,90.402 0.134,102.237 0.008,97.365 -0.013,90.378 0.887,83.482 Z m 141.132,90.446 c 3.038,-1.966 5.968,-4.097 8.765,-6.389 -2.84,2.339 -5.758,4.499 -8.765,6.389 z m 40.217,-54.282 c -0.299,0.901 -0.552,1.791 -0.882,2.641 -0.323,0.852 -0.641,1.69 -0.957,2.523 l -0.466,1.248 -0.513,1.231 c -0.339,0.823 -0.672,1.653 -0.997,2.501 -1.848,4.606 -4.058,9.082 -6.587,13.35 -2.521,4.275 -5.443,8.281 -8.565,12.04 -1.542,1.899 -3.222,3.66 -4.874,5.421 -0.863,0.844 -1.724,1.686 -2.581,2.523 -0.847,0.848 -1.774,1.604 -2.652,2.404 -0.736,0.64 -1.478,1.266 -2.225,1.882 2.772,-2.281 5.413,-4.718 7.896,-7.312 -3.789,3.921 -7.616,7.205 -11.689,10.188 -1.036,0.722 -2.037,1.496 -3.113,2.176 -1.073,0.684 -2.153,1.372 -3.247,2.069 -1.127,0.641 -2.269,1.289 -3.43,1.949 -1.167,0.648 -2.399,1.224 -3.634,1.855 0.718,-0.431 1.658,-0.952 2.685,-1.508 1.021,-0.567 2.092,-1.237 3.138,-1.85 1.054,-0.601 2.012,-1.261 2.808,-1.813 0.796,-0.552 1.42,-1.01 1.745,-1.306 -0.464,0.315 -0.936,0.617 -1.406,0.924 0.503,-0.333 1.006,-0.669 1.507,-1.015 -0.021,0.023 -0.065,0.059 -0.101,0.091 10.932,-7.466 20.245,-17.277 27.223,-28.462 7.009,-11.175 11.57,-23.781 13.46,-36.601 -0.41,5.142 -1.352,9.248 -2.543,12.851 z m -6.654,-65.352 c -0.294,-0.688 -0.59,-1.374 -0.923,-2.034 0.338,0.668 0.631,1.351 0.923,2.034 z m -8.448,-12.698 c 3.025,4.566 5.623,9.379 7.773,14.352 0.25,0.549 0.486,1.106 0.719,1.664 4.963,12.154 7.221,25.192 6.89,38.036 0.084,-4.25 -0.198,-8.498 -0.669,-12.71 -0.533,-4.854 -1.518,-9.65 -2.824,-14.341 -2.562,-9.407 -6.723,-18.323 -12.005,-26.451 0.485,0.67 0.996,1.396 1.525,2.166 0.536,0.766 1.083,1.581 1.59,2.463 l -0.638,-1.109 -0.689,-1.079 -1.378,-2.156 c -0.938,-1.424 -1.955,-2.796 -2.934,-4.192 -1.062,-1.334 -2.069,-2.712 -3.174,-4.011 -0.836,-0.953 -1.637,-1.938 -2.485,-2.879 2.992,3.155 5.801,6.54 8.299,10.247 z M 96.886,1.152 c 1.467,0.078 2.937,0.221 4.407,0.331 1.204,0.101 2.402,0.279 3.588,0.413 0.356,0.015 0.732,0.039 1.204,0.092 0.471,0.065 1.034,0.186 1.769,0.354 5.469,0.912 10.459,2.283 14.001,3.699 6.798,2.573 13.123,5.774 18.86,9.471 5.739,3.69 10.889,7.887 15.246,12.471 2.008,2.179 1.422,1.704 0.315,0.646 0.551,0.585 1.104,1.172 1.662,1.764 -0.736,-0.734 -1.459,-1.478 -2.206,-2.196 l -2.301,-2.09 c 0.56,0.49 1.918,1.663 2.845,2.522 C 148.887,21.09 140.25,14.83 130.901,10.225 121.545,5.622 111.47,2.779 101.399,1.644 c 1.618,0.18 2.412,0.22 3.168,0.24 C 103.482,1.757 102.394,1.583 101.293,1.483 99.814,1.386 98.338,1.254 96.87,1.182 95.401,1.147 93.943,1.113 92.51,1.079 c 1.444,-10e-4 2.907,0.039 4.376,0.073 z"
           inkscape:connector-curvature="0"
           style="fill:#ebeff2;fill-opacity:1" />
        <path
           id="path9692"
           d="m 115.942,184.69 c 0.143,-0.042 0.283,-0.083 0.426,-0.125 -0.446,0.12 -0.885,0.252 -1.334,0.366 0.304,-0.076 0.609,-0.15 0.908,-0.241 z"
           inkscape:connector-curvature="0"
           style="fill:#ebeff2;fill-opacity:1" />
        <path
           id="path9694"
           d="m 160.424,146.151 c 4.235,-5.587 7.977,-12.263 10.366,-18.014 l -0.029,0.006 c -6.061,14.322 -15.892,26.66 -28.16,35.744 2.378,-1.65 4.53,-3.248 6.418,-4.703 2.698,-2.82 7.213,-7.406 11.405,-13.033 z"
           inkscape:connector-curvature="0"
           style="fill:#ebeff2;fill-opacity:1" />
        <path
           id="path9696"
           d="m 35.35,162.846 c 7.172,6.412 15.821,11.992 25.448,15.751 3.754,1.413 7.585,2.651 11.503,3.523 1.944,0.502 3.929,0.812 5.899,1.181 0.987,0.175 1.987,0.272 2.979,0.412 0.994,0.129 1.986,0.275 2.987,0.333 -4.519,-0.501 -9.005,-1.251 -13.372,-2.44 -4.364,-1.185 -8.642,-2.65 -12.769,-4.449 -4.113,-1.831 -8.087,-3.942 -11.894,-6.314 -3.786,-2.408 -7.376,-5.097 -10.781,-7.997 z"
           inkscape:connector-curvature="0"
           style="fill:#ebeff2;fill-opacity:1" />
        <path
           id="path9698"
           d="m 123.877,174.277 -2.219,0.871 -2.266,0.756 c -1.5,0.54 -3.047,0.944 -4.59,1.373 1.551,-0.39 3.111,-0.754 4.624,-1.254 0.763,-0.233 1.524,-0.466 2.283,-0.698 0.746,-0.272 1.489,-0.544 2.23,-0.815 -0.086,-0.044 -0.594,0.055 -0.062,-0.233 z"
           inkscape:connector-curvature="0"
           style="fill:#ebeff2;fill-opacity:1" />
        <path
           id="path9700"
           d="m 97.683,179.965 c -1.16,0.099 -2.326,0.09 -3.494,0.102 -1.168,0.014 -2.338,0.039 -3.509,-0.038 0.565,0.053 1.093,0.103 1.576,0.148 0.482,0.031 0.916,0.068 1.295,0.113 1.381,-0.118 2.752,-0.151 4.132,-0.325 z"
           inkscape:connector-curvature="0"
           style="fill:#ebeff2;fill-opacity:1" />
        <path
           id="path9702"
           d="m 51.441,169.209 c 1.341,0.787 2.765,1.48 4.178,2.244 0.354,0.194 0.996,0.415 1.801,0.709 -1.721,-0.739 -3.37,-1.655 -5.046,-2.505 -0.83,-0.441 -1.629,-0.935 -2.443,-1.395 -0.812,-0.464 -1.621,-0.927 -2.389,-1.445 0.31,0.208 0.623,0.417 0.937,0.626 0.324,0.194 0.65,0.388 0.977,0.584 0.655,0.39 1.318,0.785 1.985,1.182 z"
           inkscape:connector-curvature="0"
           style="fill:#ebeff2;fill-opacity:1" />
      </g>
    </g>
    <g
       style="display:inline;fill:#607d8b;fill-opacity:1;filter:url(#filter9892)"
       id="g9784"
       featurekey="container1"
       transform="matrix(0.64124718,0,0,0.64124718,-79.677562,88.210199)">
      <defs
         id="defs9746" />
      <g
         style="fill:#607d8b;fill-opacity:1"
         id="g9782">
        <path
           style="fill:#607d8b;fill-opacity:1"
           inkscape:connector-curvature="0"
           d="m 17.914,148.907 c -0.664,-0.914 -1.313,-1.837 -1.944,-2.774 0.626,0.933 1.279,1.856 1.944,2.774 z"
           id="path9748" />
        <path
           style="fill:#607d8b;fill-opacity:1"
           inkscape:connector-curvature="0"
           d="m 22.657,154.94 c 1.844,2.153 3.788,4.249 5.861,6.251 6.914,6.805 15.159,12.525 24.004,16.851 3.259,1.526 6.265,3.107 9.787,4.468 0.88,0.338 1.779,0.7 2.724,1.026 0.953,0.302 1.941,0.604 2.974,0.903 1.027,0.321 2.122,0.549 3.267,0.786 1.146,0.23 2.336,0.493 3.614,0.624 -6.3,-1.328 -12.498,-3.333 -18.434,-5.99 -5.93,-2.671 -11.597,-5.979 -16.873,-9.842 -10.548,-7.727 -19.57,-17.648 -26.16,-28.989 -0.272,-0.339 -0.685,-0.985 -1.18,-1.808 -0.244,-0.413 -0.512,-0.868 -0.796,-1.348 -0.256,-0.496 -0.527,-1.018 -0.803,-1.551 -0.534,-1.076 -1.149,-2.168 -1.62,-3.226 -0.486,-1.05 -0.943,-2.011 -1.326,-2.748 2.048,5.101 4.412,9.563 7.059,13.806 1.215,1.936 2.495,3.828 3.869,5.697 -0.192,-0.259 -0.392,-0.511 -0.583,-0.771 1.446,1.986 2.974,3.94 4.6,5.841 0.005,0.005 0.01,0.013 0.016,0.02 z"
           id="path9750" />
        <path
           style="fill:#607d8b;fill-opacity:1"
           inkscape:connector-curvature="0"
           d="m 18.039,149.078 c -0.042,-0.057 -0.084,-0.114 -0.125,-0.17 0.042,0.056 0.084,0.113 0.125,0.17 z"
           id="path9752" />
        <path
           style="fill:#607d8b;fill-opacity:1"
           inkscape:connector-curvature="0"
           d="m 1.335,106.042 c -0.159,-1.277 -0.32,-2.567 -0.483,-3.875 0.256,2.365 0.553,5.008 1.096,7.654 -0.109,-0.624 -0.217,-1.251 -0.327,-1.879 -0.118,-0.627 -0.218,-1.26 -0.286,-1.9 z"
           id="path9754" />
        <path
           style="fill:#607d8b;fill-opacity:1"
           inkscape:connector-curvature="0"
           d="m 85.812,185.575 c 6.652,0.673 13.628,0.472 20.461,-0.609 6.837,-1.077 13.524,-2.987 19.741,-5.449 -11.45,4.503 -23.602,6.506 -35.49,6.171 -1.591,-0.025 -3.159,0 -4.712,-0.113 z"
           id="path9756" />
        <path
           style="fill:#607d8b;fill-opacity:1"
           inkscape:connector-curvature="0"
           d="m 46.426,171.967 c -0.086,-0.055 -0.173,-0.11 -0.259,-0.165 0.087,0.055 0.172,0.111 0.259,0.165 z"
           id="path9758" />
        <path
           style="fill:#607d8b;fill-opacity:1"
           inkscape:connector-curvature="0"
           d="m 46.167,171.802 c -0.853,-0.542 -1.688,-1.1 -2.514,-1.667 0.822,0.57 1.664,1.122 2.514,1.667 z"
           id="path9760" />
        <path
           style="fill:#607d8b;fill-opacity:1"
           inkscape:connector-curvature="0"
           d="m 43.653,170.135 c -0.899,-0.623 -1.797,-1.248 -2.66,-1.897 0.868,0.648 1.759,1.278 2.66,1.897 z"
           id="path9762" />
        <path
           style="fill:#607d8b;fill-opacity:1"
           inkscape:connector-curvature="0"
           d="m 56.077,177.284 c 5.439,2.533 11.23,4.506 17.123,5.816 -9.688,-2.21 -18.805,-6.109 -26.774,-11.133 3.06,1.947 6.277,3.749 9.651,5.317 z"
           id="path9764" />
        <path
           style="fill:#607d8b;fill-opacity:1"
           inkscape:connector-curvature="0"
           d="m 177.002,107.094 c 0.098,-1.58 0.296,-3.238 0.346,-4.027 0.594,-5.071 0.77,-9.401 0.745,-13.745 -0.11,-0.783 -0.425,-2.25 -0.55,-3.918 -0.153,-1.672 -0.378,-3.309 -0.568,-4.924 -0.289,-1.601 -0.538,-3.186 -0.854,-4.74 2.275,11.617 2.237,23.279 0.144,34.282 0.245,-1.036 0.491,-2.019 0.737,-2.928 z"
           id="path9766" />
        <path
           style="fill:#607d8b;fill-opacity:1"
           inkscape:connector-curvature="0"
           d="m 0.887,83.482 c 0.848,-6.9 2.653,-13.626 4.37,-18.107 l -0.695,3.28 c 0.429,-0.961 1.122,-3.194 2.067,-5.557 0.225,-0.594 0.454,-1.2 0.682,-1.802 0.255,-0.591 0.508,-1.179 0.753,-1.747 0.5,-1.131 0.92,-2.203 1.363,-3.025 C 9.124,57.295 8.832,58.126 8.48,58.96 8.135,59.797 7.748,60.647 7.379,61.502 8.134,59.8 8.134,59.8 8.893,58.093 7.581,61.359 6.148,65.463 4.954,69.8 3.821,74.152 2.925,78.726 2.443,82.832 c -0.14,1.024 -0.189,2.024 -0.28,2.978 -0.067,0.954 -0.183,1.864 -0.192,2.724 -0.042,1.719 -0.1,3.224 -0.071,4.428 0.105,2.409 0.25,3.61 0.459,2.939 0.411,-1.333 0.403,-8.188 1.837,-16.767 0.767,-4.276 1.868,-8.966 3.362,-13.561 1.483,-4.599 3.427,-9.058 5.44,-12.992 -0.197,0.429 -0.394,0.859 -0.592,1.292 -0.181,0.442 -0.362,0.885 -0.545,1.331 -0.369,0.889 -0.741,1.787 -1.116,2.691 -0.339,0.92 -0.68,1.846 -1.024,2.78 C 9.548,61.141 9.374,61.608 9.2,62.077 9.047,62.553 8.892,63.031 8.739,63.511 7.419,67.318 6.432,71.327 5.572,75.368 L 5.013,78.42 C 4.808,79.434 4.721,80.466 4.569,81.487 4.251,83.528 4.135,85.584 3.958,87.616 3.759,91.69 3.719,95.714 4.088,99.562 4.073,98.648 4.058,97.836 4.071,97.05 c 0.038,-0.785 0.075,-1.545 0.115,-2.355 0.048,-0.809 0.039,-1.667 0.115,-2.65 0.07,-0.983 0.134,-2.091 0.19,-3.402 0.391,-6.608 1.572,-13.15 3.408,-19.481 1.75,-6.358 3.814,-11.957 6.889,-17.03 0.269,-0.513 0.536,-1.021 0.801,-1.526 0.542,-1.024 0.993,-2.034 1.566,-3.064 0.653,-1.13 1.278,-1.976 1.784,-2.751 0.521,-0.767 0.963,-1.441 1.469,-2.095 0.969,-1.336 1.977,-2.729 3.682,-5.082 0.075,-0.009 -0.022,0.185 -0.2,0.473 0.506,-0.725 1.194,-1.622 1.959,-2.49 0.755,-0.875 1.488,-1.803 2.109,-2.569 0.146,-0.007 0.288,-0.011 0.623,-0.251 8.65,-9.197 19.295,-16.692 31.291,-21.417 0.892,-0.347 1.781,-0.694 2.667,-1.039 0.902,-0.3 1.802,-0.6 2.7,-0.899 l 1.343,-0.448 1.36,-0.38 c 0.906,-0.252 1.809,-0.502 2.71,-0.753 1.55,-0.373 3.12,-0.751 4.721,-1.091 0.806,-0.141 1.619,-0.283 2.437,-0.426 0.819,-0.141 1.642,-0.3 2.484,-0.378 1.674,-0.201 3.134,-0.625 3.921,-0.729 4.369,-0.249 8.73,-0.199 13.849,0.216 0.397,0.007 1.015,0.043 1.732,0.082 0.717,0.041 1.537,0.061 2.332,0.134 0.932,0.21 1.927,0.418 2.971,0.621 6.369,0.988 12.527,2.754 18.386,5.103 l -0.007,-0.028 c 0.73,0.291 1.479,0.589 2.244,0.894 0.748,0.346 1.513,0.699 2.29,1.058 1.571,0.684 3.11,1.559 4.7,2.383 0.798,0.407 1.554,0.904 2.338,1.354 0.77,0.474 1.576,0.894 2.32,1.412 1.508,1.002 3.037,1.961 4.446,3.032 2.402,1.723 4.619,3.507 6.6,5.198 0.046,0.042 0.094,0.081 0.14,0.122 0.018,0.016 0.028,0.025 0.042,0.038 l 1.457,1.322 1.394,1.391 1.395,1.392 c 0.462,0.467 0.89,0.967 1.337,1.449 -0.216,-0.35 -0.208,-0.491 -0.2,-0.63 -0.689,-0.66 -1.504,-1.441 -2.309,-2.21 1.343,1.222 2.515,2.327 3.477,3.229 0.371,0.474 0.776,0.94 1.16,1.449 0.385,0.508 0.78,1.031 1.186,1.566 0.41,0.53 0.831,1.074 1.261,1.629 0.409,0.572 0.828,1.156 1.255,1.752 2.226,2.838 4.191,5.874 6.057,8.97 0.864,1.588 1.817,3.131 2.586,4.774 l 1.213,2.436 1.092,2.497 c 0.314,0.533 0.192,0.022 0.231,-0.068 1.225,2.962 2.21,6.042 3.102,9.146 1.692,5.556 2.839,11.323 3.408,17.211 0.225,1.378 0.321,2.772 0.52,4.153 -0.033,0.787 -0.075,1.773 -0.123,2.924 -0.001,1.103 0.057,2.206 0.01,3.311 -0.042,1.104 -0.085,2.212 -0.128,3.326 -0.016,0.75 -0.124,1.569 -0.187,2.459 -0.084,0.888 -0.128,1.846 -0.256,2.856 -0.13,1.008 -0.268,2.076 -0.412,3.192 -0.132,1.119 -0.387,2.269 -0.583,3.471 -0.883,4.79 -2.297,10.17 -4.312,15.482 -0.242,0.826 -0.427,1.486 -0.592,1.855 -0.627,1.501 -1.296,2.954 -1.942,4.385 -0.723,1.394 -1.386,2.788 -2.127,4.108 -2.441,4.646 -5.246,8.876 -7.949,12.379 -0.336,0.439 -0.649,0.885 -0.987,1.297 -0.34,0.41 -0.673,0.812 -0.998,1.206 -0.66,0.779 -1.25,1.558 -1.876,2.234 -1.251,1.352 -2.301,2.606 -3.286,3.549 -1.128,1.178 -1.027,1.233 -0.246,0.665 0.388,-0.287 0.957,-0.719 1.608,-1.262 0.631,-0.569 1.362,-1.228 2.122,-1.914 0.776,-0.677 1.519,-1.441 2.235,-2.161 0.708,-0.725 1.416,-1.386 1.962,-1.984 1.101,-1.191 1.824,-1.926 1.67,-1.599 -1.777,3.345 -5.013,7.471 -9.743,12.035 -2.413,2.227 -5.128,4.647 -8.339,6.98 -1.566,1.221 -3.307,2.338 -5.082,3.558 -1.834,1.123 -3.708,2.353 -5.757,3.445 -4.484,2.442 3.365,-1.475 3.577,-1.512 -0.605,0.472 -1.406,1.062 -2.377,1.64 -1.478,0.786 -2.943,1.597 -4.474,2.273 -0.895,0.411 -1.774,0.855 -2.679,1.239 l -2.729,1.122 c 0.483,-0.19 0.958,-0.376 1.444,-0.568 2.952,-1.173 5.711,-2.555 8.202,-3.922 -0.936,0.566 -1.96,1.221 -3.082,1.812 -1.203,0.622 -2.448,1.302 -3.697,1.909 -1.26,0.586 -2.494,1.16 -3.625,1.686 12.968,-4.711 24.885,-12.507 34.319,-22.67 4.723,-5.066 8.935,-10.631 12.369,-16.651 3.455,-6.005 6.239,-12.391 8.288,-18.999 -3.154,9.93 -8.071,19.052 -13.981,26.765 10.744,-14.507 17.15,-32.293 17.999,-50.636 -10e-4,1.011 -0.101,2.018 -0.168,3.025 -0.083,1.007 -0.123,2.018 -0.241,3.022 -0.257,2.005 -0.441,4.021 -0.827,6.009 -0.624,4 -1.636,7.931 -2.782,11.815 2.262,-7.021 3.613,-14.424 4.145,-21.869 0.554,-7.451 0.092,-14.947 -1.057,-22.211 1.974,9.622 2.301,20.524 0.619,31.298 1.182,-6.949 1.482,-14.112 1.028,-21.214 -0.102,-2.713 -0.422,-5.407 -0.685,-7.901 -0.377,-2.476 -0.662,-4.762 -1.027,-6.611 1.445,6.826 2.015,12.648 2.293,18.136 -0.267,-11.977 -2.748,-24.112 -7.62,-35.511 2.659,6.191 4.842,12.851 6.175,19.698 1.34,6.84 1.897,13.838 1.58,20.57 -0.015,-0.788 0.018,-1.575 -0.028,-2.366 -0.036,-0.791 -0.071,-1.586 -0.107,-2.391 0.287,10.85 -1.384,21.604 -4.696,31.717 -1.662,5.056 -3.715,9.969 -6.2,14.644 -2.484,4.674 -5.349,9.131 -8.56,13.316 3.673,-4.29 7.551,-10.354 10.646,-17.015 3.081,-6.675 5.368,-13.894 6.941,-20.199 -2.314,11.322 -6.907,22.494 -13.571,32.471 -6.646,9.985 -15.351,18.764 -25.423,25.502 -10.06,6.759 -21.474,11.437 -33.187,13.748 -5.856,1.161 -11.779,1.764 -17.657,1.809 -5.877,0.032 -11.702,-0.488 -17.361,-1.515 l 3.005,0.571 c 1.002,0.19 2.018,0.295 3.026,0.445 2.016,0.324 4.055,0.446 6.087,0.633 4.073,0.229 8.168,0.306 12.25,-0.005 4.089,-0.217 8.152,-0.827 12.196,-1.572 2.006,-0.456 4.036,-0.829 6.017,-1.414 0.994,-0.278 2,-0.521 2.987,-0.83 l 2.955,-0.958 c -1.492,0.462 -3.062,1.074 -4.739,1.523 -0.692,0.203 -1.396,0.41 -2.101,0.618 4.45,-1.195 8.735,-2.677 12.91,-4.496 1.903,-0.831 3.786,-1.73 5.651,-2.705 -3.472,1.838 -7.05,3.472 -10.714,4.872 -7.006,2.619 -14.295,4.418 -21.66,5.382 -1.11,0.176 -2.122,0.231 -3.029,0.326 -0.908,0.09 -1.714,0.169 -2.428,0.24 -1.429,0.113 -2.484,0.164 -3.222,0.245 -1.477,0.147 -1.687,0.284 -1.099,0.397 0.587,0.113 1.971,0.203 3.673,0.251 1.697,-0.01 3.71,-0.101 5.541,-0.268 18.397,-1.887 35.288,-9.107 48.824,-19.916 13.545,-10.811 23.919,-25.172 29.701,-41.467 0.363,-0.946 0.642,-1.922 0.944,-2.89 0.293,-0.971 0.617,-1.932 0.882,-2.912 0.491,-1.97 1.072,-3.917 1.448,-5.917 l 0.619,-2.985 0.487,-3.012 0.241,-1.507 0.172,-1.517 0.342,-3.034 c 0.698,-8.114 0.422,-16.315 -0.812,-24.363 -0.66,-4.554 -1.82,-9.961 -3.315,-14.777 -0.395,-1.197 -0.781,-2.365 -1.15,-3.484 -0.4,-1.107 -0.825,-2.151 -1.203,-3.133 -0.193,-0.49 -0.379,-0.962 -0.557,-1.415 -0.2,-0.444 -0.39,-0.869 -0.571,-1.271 -0.37,-0.801 -0.7,-1.516 -0.981,-2.124 -3.134,-6.359 -7.072,-12.424 -11.682,-18.065 -4.605,-5.643 -9.896,-10.868 -15.861,-15.418 -0.747,-0.566 -1.494,-1.134 -2.244,-1.703 -0.774,-0.535 -1.55,-1.071 -2.327,-1.608 l -1.166,-0.806 -1.203,-0.756 c -0.804,-0.502 -1.609,-1.004 -2.417,-1.508 -3.295,-1.904 -6.67,-3.739 -10.228,-5.261 -3.521,-1.598 -7.206,-2.895 -10.957,-4.055 -1.895,-0.52 -3.781,-1.1 -5.724,-1.499 C 112.286,2.199 111.326,1.945 110.347,1.77 109.368,1.596 108.387,1.423 107.403,1.249 100.363,0.01 93.04,-0.285 85.724,0.265 78.412,0.83 71.069,2.218 64.028,4.614 l -2.635,0.913 c -0.881,0.297 -1.73,0.682 -2.597,1.019 -0.858,0.359 -1.735,0.673 -2.577,1.069 l -2.532,1.173 c -0.852,0.376 -1.675,0.808 -2.496,1.245 l -2.469,1.297 -2.402,1.412 c -0.8,0.472 -1.606,0.933 -2.372,1.458 l -2.324,1.528 c -0.782,0.497 -1.506,1.078 -2.261,1.612 -0.741,0.554 -1.51,1.07 -2.226,1.654 l -2.157,1.737 c -0.729,0.565 -1.417,1.178 -2.103,1.792 l -2.063,1.83 -1.971,1.919 c -0.656,0.639 -1.319,1.271 -1.93,1.951 C 21.882,33.521 17.462,39.301 13.847,45.417 10.232,51.533 7.344,57.926 5.18,64.379 0.805,77.299 -0.45,90.402 0.134,102.237 0.008,97.365 -0.013,90.378 0.887,83.482 Z m 141.132,90.446 c 3.038,-1.966 5.968,-4.097 8.765,-6.389 -2.84,2.339 -5.758,4.499 -8.765,6.389 z m 40.217,-54.282 c -0.299,0.901 -0.552,1.791 -0.882,2.641 -0.323,0.852 -0.641,1.69 -0.957,2.523 l -0.466,1.248 -0.513,1.231 c -0.339,0.823 -0.672,1.653 -0.997,2.501 -1.848,4.606 -4.058,9.082 -6.587,13.35 -2.521,4.275 -5.443,8.281 -8.565,12.04 -1.542,1.899 -3.222,3.66 -4.874,5.421 -0.863,0.844 -1.724,1.686 -2.581,2.523 -0.847,0.848 -1.774,1.604 -2.652,2.404 -0.736,0.64 -1.478,1.266 -2.225,1.882 2.772,-2.281 5.413,-4.718 7.896,-7.312 -3.789,3.921 -7.616,7.205 -11.689,10.188 -1.036,0.722 -2.037,1.496 -3.113,2.176 -1.073,0.684 -2.153,1.372 -3.247,2.069 -1.127,0.641 -2.269,1.289 -3.43,1.949 -1.167,0.648 -2.399,1.224 -3.634,1.855 0.718,-0.431 1.658,-0.952 2.685,-1.508 1.021,-0.567 2.092,-1.237 3.138,-1.85 1.054,-0.601 2.012,-1.261 2.808,-1.813 0.796,-0.552 1.42,-1.01 1.745,-1.306 -0.464,0.315 -0.936,0.617 -1.406,0.924 0.503,-0.333 1.006,-0.669 1.507,-1.015 -0.021,0.023 -0.065,0.059 -0.101,0.091 10.932,-7.466 20.245,-17.277 27.223,-28.462 7.009,-11.175 11.57,-23.781 13.46,-36.601 -0.41,5.142 -1.352,9.248 -2.543,12.851 z m -6.654,-65.352 c -0.294,-0.688 -0.59,-1.374 -0.923,-2.034 0.338,0.668 0.631,1.351 0.923,2.034 z m -8.448,-12.698 c 3.025,4.566 5.623,9.379 7.773,14.352 0.25,0.549 0.486,1.106 0.719,1.664 4.963,12.154 7.221,25.192 6.89,38.036 0.084,-4.25 -0.198,-8.498 -0.669,-12.71 -0.533,-4.854 -1.518,-9.65 -2.824,-14.341 -2.562,-9.407 -6.723,-18.323 -12.005,-26.451 0.485,0.67 0.996,1.396 1.525,2.166 0.536,0.766 1.083,1.581 1.59,2.463 l -0.638,-1.109 -0.689,-1.079 -1.378,-2.156 c -0.938,-1.424 -1.955,-2.796 -2.934,-4.192 -1.062,-1.334 -2.069,-2.712 -3.174,-4.011 -0.836,-0.953 -1.637,-1.938 -2.485,-2.879 2.992,3.155 5.801,6.54 8.299,10.247 z M 96.886,1.152 c 1.467,0.078 2.937,0.221 4.407,0.331 1.204,0.101 2.402,0.279 3.588,0.413 0.356,0.015 0.732,0.039 1.204,0.092 0.471,0.065 1.034,0.186 1.769,0.354 5.469,0.912 10.459,2.283 14.001,3.699 6.798,2.573 13.123,5.774 18.86,9.471 5.739,3.69 10.889,7.887 15.246,12.471 2.008,2.179 1.422,1.704 0.315,0.646 0.551,0.585 1.104,1.172 1.662,1.764 -0.736,-0.734 -1.459,-1.478 -2.206,-2.196 l -2.301,-2.09 c 0.56,0.49 1.918,1.663 2.845,2.522 C 148.887,21.09 140.25,14.83 130.901,10.225 121.545,5.622 111.47,2.779 101.399,1.644 c 1.618,0.18 2.412,0.22 3.168,0.24 C 103.482,1.757 102.394,1.583 101.293,1.483 99.814,1.386 98.338,1.254 96.87,1.182 95.401,1.147 93.943,1.113 92.51,1.079 c 1.444,-10e-4 2.907,0.039 4.376,0.073 z"
           id="path9768" />
        <path
           style="fill:#607d8b;fill-opacity:1"
           inkscape:connector-curvature="0"
           d="m 115.942,184.69 c 0.143,-0.042 0.283,-0.083 0.426,-0.125 -0.446,0.12 -0.885,0.252 -1.334,0.366 0.304,-0.076 0.609,-0.15 0.908,-0.241 z"
           id="path9770" />
        <path
           style="fill:#607d8b;fill-opacity:1"
           inkscape:connector-curvature="0"
           d="m 160.424,146.151 c 4.235,-5.587 7.977,-12.263 10.366,-18.014 l -0.029,0.006 c -6.061,14.322 -15.892,26.66 -28.16,35.744 2.378,-1.65 4.53,-3.248 6.418,-4.703 2.698,-2.82 7.213,-7.406 11.405,-13.033 z"
           id="path9772" />
        <path
           style="fill:#607d8b;fill-opacity:1"
           inkscape:connector-curvature="0"
           d="m 35.35,162.846 c 7.172,6.412 15.821,11.992 25.448,15.751 3.754,1.413 7.585,2.651 11.503,3.523 1.944,0.502 3.929,0.812 5.899,1.181 0.987,0.175 1.987,0.272 2.979,0.412 0.994,0.129 1.986,0.275 2.987,0.333 -4.519,-0.501 -9.005,-1.251 -13.372,-2.44 -4.364,-1.185 -8.642,-2.65 -12.769,-4.449 -4.113,-1.831 -8.087,-3.942 -11.894,-6.314 -3.786,-2.408 -7.376,-5.097 -10.781,-7.997 z"
           id="path9774" />
        <path
           style="fill:#607d8b;fill-opacity:1"
           inkscape:connector-curvature="0"
           d="m 123.877,174.277 -2.219,0.871 -2.266,0.756 c -1.5,0.54 -3.047,0.944 -4.59,1.373 1.551,-0.39 3.111,-0.754 4.624,-1.254 0.763,-0.233 1.524,-0.466 2.283,-0.698 0.746,-0.272 1.489,-0.544 2.23,-0.815 -0.086,-0.044 -0.594,0.055 -0.062,-0.233 z"
           id="path9776" />
        <path
           style="fill:#607d8b;fill-opacity:1"
           inkscape:connector-curvature="0"
           d="m 97.683,179.965 c -1.16,0.099 -2.326,0.09 -3.494,0.102 -1.168,0.014 -2.338,0.039 -3.509,-0.038 0.565,0.053 1.093,0.103 1.576,0.148 0.482,0.031 0.916,0.068 1.295,0.113 1.381,-0.118 2.752,-0.151 4.132,-0.325 z"
           id="path9778" />
        <path
           style="fill:#607d8b;fill-opacity:1"
           inkscape:connector-curvature="0"
           d="m 51.441,169.209 c 1.341,0.787 2.765,1.48 4.178,2.244 0.354,0.194 0.996,0.415 1.801,0.709 -1.721,-0.739 -3.37,-1.655 -5.046,-2.505 -0.83,-0.441 -1.629,-0.935 -2.443,-1.395 -0.812,-0.464 -1.621,-0.927 -2.389,-1.445 0.31,0.208 0.623,0.417 0.937,0.626 0.324,0.194 0.65,0.388 0.977,0.584 0.655,0.39 1.318,0.785 1.985,1.182 z"
           id="path9780" />
      </g>
    </g>
    <g
       style="display:inline;fill:#ebeff2;fill-opacity:1"
       id="SvgjsG4811"
       featurekey="text4"
       transform="matrix(7.725873,0,0,-7.716257,-59.388666,283.62946)">
      <path
         inkscape:connector-curvature="0"
         d="m 9.8600001,20.06 c -0.26,1.02 -0.76,2.08 -1.6,2.74 -1.36,1.1 -3.34,1.54 -5.02,0.86 -1.64,-0.66 -2.93999998,-2.12 -3.31999998,-3.88 -0.08,-0.42 -0.14,-0.86 -0.14,-1.3 0.02,-1.46 0.32,-2.9 1.21999998,-4.06 0.6,-0.8 1.48,-1.7 2.3,-2.28 0.38,-0.28 0.78,-0.54 1.2,-0.78 0.4,-0.24 0.9,-0.38 1.38,-0.34 0.42,0.04 0.68,0.34 0.68,0.68 0.12,0.24 0.1,0.48 0.08,0.78 -0.04,0.34 -0.02,2.3 0,2.94 0.02,0.62 0.04,1.26 0.06,1.9 0,0.34 0.02,0.68 0.04,1 0,0.28 0.04,0.56 -0.02,0.82 -0.02,0.12 -0.18,0.18 -0.28,0.12 -0.06,-0.04 -0.1,-0.06 -0.12,-0.1 -0.06,0.02 -0.12,0 -0.16,0 -0.26,-0.08 -0.44,-0.28 -0.56,-0.52 -0.08,-0.12 -0.12,-0.26 -0.16,-0.38 h -0.06 v 0.06 c 0.12,0.46 0.4,1.1 0.98,1 0.42,-0.08 0.5,0.54 0.08,0.58 -0.52,0.06 -1.06,-0.28 -1.28,-0.76 -0.28,-0.62 -0.26,-1.28 -0.28,-1.92 -0.04,-1.3 -0.08,-2.58 -0.12,-3.86 -0.08,0.06 -0.16,0.12 -0.26,0.18 -1.36,1.04 -2.1,2.4 -2.42,4.1 -0.02,0.16 -0.04,0.16 -0.04,0.28 -0.02,0.1 -0.02,0.22 -0.02,0.32 -0.02,0.48 0.06,0.94 0.2,1.38 0.38,1.18 1.08,2.3 2.38,2.38 0.08,0 0.18,0.02 0.26,0.02 0.74,-0.02 1.44,-0.28 1.98,-0.76 0.2,-0.18 0.4,-0.42 0.52,-0.66 0.36,-0.64 0.44,-1.4 0.42,-2.1 -0.02,-0.34 -0.04,-0.68 -0.2,-0.98 0.02,0.02 0.02,0.06 0.04,0.08 -0.26,-0.58 -0.18,-1.26 0.42,-1.6 0.56,-0.34 1.24,-0.1 1.6,0.42 0.6599999,1.02 0.5199999,2.52 0.22,3.64 z m -4.82,-4.76 h 0.1 c -0.04,-0.74 -0.04,-1.48 0.02,-2.22 -0.1,0.08 -0.22,0.16 -0.32,0.22 0.06,0.68 0.14,1.34 0.2,2 z"
         id="path4502"
         style="fill:#ebeff2;fill-opacity:1" />
    </g>
    <g
       transform="matrix(7.725873,0,0,-7.716257,-60.35629,283.32756)"
       featurekey="text4"
       id="g8060"
       style="display:inline;opacity:0.647;fill:#607d89;fill-opacity:1;filter:url(#filter9138)">
      <path
         style="fill:#607d89;fill-opacity:1"
         id="path8058"
         d="m 9.8600001,20.06 c -0.26,1.02 -0.76,2.08 -1.6,2.74 -1.36,1.1 -3.34,1.54 -5.02,0.86 -1.64,-0.66 -2.93999998,-2.12 -3.31999998,-3.88 -0.08,-0.42 -0.14,-0.86 -0.14,-1.3 0.02,-1.46 0.32,-2.9 1.21999998,-4.06 0.6,-0.8 1.48,-1.7 2.3,-2.28 0.38,-0.28 0.78,-0.54 1.2,-0.78 0.4,-0.24 0.9,-0.38 1.38,-0.34 0.42,0.04 0.68,0.34 0.68,0.68 0.12,0.24 0.1,0.48 0.08,0.78 -0.04,0.34 -0.02,2.3 0,2.94 0.02,0.62 0.04,1.26 0.06,1.9 0,0.34 0.02,0.68 0.04,1 0,0.28 0.04,0.56 -0.02,0.82 -0.02,0.12 -0.18,0.18 -0.28,0.12 -0.06,-0.04 -0.1,-0.06 -0.12,-0.1 -0.06,0.02 -0.12,0 -0.16,0 -0.26,-0.08 -0.44,-0.28 -0.56,-0.52 -0.08,-0.12 -0.12,-0.26 -0.16,-0.38 h -0.06 v 0.06 c 0.12,0.46 0.4,1.1 0.98,1 0.42,-0.08 0.5,0.54 0.08,0.58 -0.52,0.06 -1.06,-0.28 -1.28,-0.76 -0.28,-0.62 -0.26,-1.28 -0.28,-1.92 -0.04,-1.3 -0.08,-2.58 -0.12,-3.86 -0.08,0.06 -0.16,0.12 -0.26,0.18 -1.36,1.04 -2.1,2.4 -2.42,4.1 -0.02,0.16 -0.04,0.16 -0.04,0.28 -0.02,0.1 -0.02,0.22 -0.02,0.32 -0.02,0.48 0.06,0.94 0.2,1.38 0.38,1.18 1.08,2.3 2.38,2.38 0.08,0 0.18,0.02 0.26,0.02 0.74,-0.02 1.44,-0.28 1.98,-0.76 0.2,-0.18 0.4,-0.42 0.52,-0.66 0.36,-0.64 0.44,-1.4 0.42,-2.1 -0.02,-0.34 -0.04,-0.68 -0.2,-0.98 0.02,0.02 0.02,0.06 0.04,0.08 -0.26,-0.58 -0.18,-1.26 0.42,-1.6 0.56,-0.34 1.24,-0.1 1.6,0.42 0.6599999,1.02 0.5199999,2.52 0.22,3.64 z m -4.82,-4.76 h 0.1 c -0.04,-0.74 -0.04,-1.48 0.02,-2.22 -0.1,0.08 -0.22,0.16 -0.32,0.22 0.06,0.68 0.14,1.34 0.2,2 z"
         inkscape:connector-curvature="0" />
    </g>
  </g>
</svg>
